<svg xmlns="http://www.w3.org/2000/svg" viewBox="0 0 280 160">
<defs><filter id="blur" x="-20%" y="-20%" width="140%" height="140%"><feGaussianBlur stdDeviation="5"/></filter></defs>
<rect width="280" height="160" fill="#f7f6f3"/>
<polygon points="129.5,56.9 216.1,106.8 150.5,144.7 63.9,94.7" fill="#000" opacity="0.10" filter="url(#blur)"/>
<polygon points="66.7,92.4 150.5,140.7 150.5,139.3 66.7,90.9" fill="#eeebe6" stroke="#c9c5bd" stroke-width="1" stroke-linejoin="round"/>
<polygon points="213.3,104.5 150.5,140.7 150.5,139.3 213.3,103.0" fill="#e6e2dc" stroke="#c9c5bd" stroke-width="1" stroke-linejoin="round"/>
<polygon points="129.5,54.7 66.7,90.9 66.7,52.3 129.5,16.0" fill="#f1efeb" stroke="#c9c5bd" stroke-width="1" stroke-linejoin="round"/>
<polygon points="126.7,14.4 129.5,16.0 66.7,52.3 63.9,50.6" fill="#ffffff" stroke="#c9c5bd" stroke-width="1" stroke-linejoin="round"/>
<polygon points="63.9,90.8 66.7,92.4 66.7,52.3 63.9,50.6" fill="#dcd8d1" stroke="#c9c5bd" stroke-width="1" stroke-linejoin="round"/>
<polygon points="129.5,54.7 213.3,103.0 213.3,64.3 129.5,16.0" fill="#e7e4de" stroke="#c9c5bd" stroke-width="1" stroke-linejoin="round"/>
<polygon points="132.4,14.4 216.1,62.7 213.3,64.3 129.5,16.0" fill="#ffffff" stroke="#c9c5bd" stroke-width="1" stroke-linejoin="round"/>
<polygon points="216.1,102.8 213.3,104.5 213.3,64.3 216.1,62.7" fill="#dcd8d1" stroke="#c9c5bd" stroke-width="1" stroke-linejoin="round"/>
<polygon points="129.5,54.7 213.3,103.0 150.5,139.3 66.7,90.9" fill="#fbfaf8" stroke="#c9c5bd" stroke-width="1" stroke-linejoin="round"/>
<polygon points="140.8,70.1 159.9,81.1 159.9,79.6 140.8,68.6" fill="#e8f0f2" stroke="#c9c5bd" stroke-width="1" stroke-linejoin="round"/>
<polygon points="169.8,75.4 159.9,81.1 159.9,79.6 169.8,73.8" fill="#dee8ea" stroke="#c9c5bd" stroke-width="1" stroke-linejoin="round"/>
<polygon points="150.8,62.8 169.8,73.8 159.9,79.6 140.8,68.6" fill="#eef4f6" stroke="#c9c5bd" stroke-width="1" stroke-linejoin="round"/>
<polygon points="142.0,82.3 159.8,92.6 159.8,80.5 142.0,70.2" fill="#e2dfd9" stroke="#c9c5bd" stroke-width="1" stroke-linejoin="round"/>
<polygon points="168.7,87.4 159.8,92.6 159.8,80.5 168.7,75.3" fill="#d8d5cf" stroke="#c9c5bd" stroke-width="1" stroke-linejoin="round"/>
<polygon points="150.9,65.1 168.7,75.3 159.8,80.5 142.0,70.2" fill="#efedea" stroke="#c9c5bd" stroke-width="1" stroke-linejoin="round"/>
<polygon points="101.5,73.5 120.5,84.5 120.5,83.0 101.5,72.0" fill="#e8f0f2" stroke="#c9c5bd" stroke-width="1" stroke-linejoin="round"/>
<polygon points="130.5,78.8 120.5,84.5 120.5,83.0 130.5,77.2" fill="#dee8ea" stroke="#c9c5bd" stroke-width="1" stroke-linejoin="round"/>
<polygon points="111.4,66.2 130.5,77.2 120.5,83.0 101.5,72.0" fill="#eef4f6" stroke="#c9c5bd" stroke-width="1" stroke-linejoin="round"/>
<polygon points="102.6,85.7 120.4,96.0 120.4,83.9 102.6,73.6" fill="#e2dfd9" stroke="#c9c5bd" stroke-width="1" stroke-linejoin="round"/>
<polygon points="129.3,90.8 120.4,96.0 120.4,83.9 129.3,78.7" fill="#d8d5cf" stroke="#c9c5bd" stroke-width="1" stroke-linejoin="round"/>
<polygon points="111.5,68.5 129.3,78.7 120.4,83.9 102.6,73.6" fill="#efedea" stroke="#c9c5bd" stroke-width="1" stroke-linejoin="round"/>
<polygon points="126.8,91.8 145.9,102.8 145.9,101.2 126.8,90.2" fill="#e8f0f2" stroke="#c9c5bd" stroke-width="1" stroke-linejoin="round"/>
<polygon points="155.8,97.0 145.9,102.8 145.9,101.2 155.8,95.5" fill="#dee8ea" stroke="#c9c5bd" stroke-width="1" stroke-linejoin="round"/>
<polygon points="136.8,84.5 155.8,95.5 145.9,101.2 126.8,90.2" fill="#eef4f6" stroke="#c9c5bd" stroke-width="1" stroke-linejoin="round"/>
<polygon points="128.0,103.9 145.8,114.2 145.8,102.1 128.0,91.8" fill="#e2dfd9" stroke="#c9c5bd" stroke-width="1" stroke-linejoin="round"/>
<polygon points="154.7,109.1 145.8,114.2 145.8,102.1 154.7,97.0" fill="#d8d5cf" stroke="#c9c5bd" stroke-width="1" stroke-linejoin="round"/>
<polygon points="136.9,86.7 154.7,97.0 145.8,102.1 128.0,91.8" fill="#efedea" stroke="#c9c5bd" stroke-width="1" stroke-linejoin="round"/>
</svg>
