<svg xmlns="http://www.w3.org/2000/svg" viewBox="0 0 280 160">
<defs><filter id="blur" x="-20%" y="-20%" width="140%" height="140%"><feGaussianBlur stdDeviation="5"/></filter></defs>
<rect width="280" height="160" fill="#f7f6f3"/>
<polygon points="140.0,39.6 231.0,92.2 140.0,144.8 49.0,92.2" fill="#000" opacity="0.10" filter="url(#blur)"/>
<polygon points="52.9,89.2 140.0,139.5 140.0,138.0 52.9,87.7" fill="#eeebe6" stroke="#c9c5bd" stroke-width="1" stroke-linejoin="round"/>
<polygon points="227.1,89.2 140.0,139.5 140.0,138.0 227.1,87.7" fill="#e6e2dc" stroke="#c9c5bd" stroke-width="1" stroke-linejoin="round"/>
<polygon points="140.0,37.4 227.1,87.7 140.0,138.0 52.9,87.7" fill="#fbfaf8" stroke="#c9c5bd" stroke-width="1" stroke-linejoin="round"/>
<polygon points="50.7,86.4 53.3,87.9 53.3,77.9 50.7,76.4" fill="#e2dfd9" stroke="#c9c5bd" stroke-width="1" stroke-linejoin="round"/>
<polygon points="140.4,37.6 53.3,87.9 53.3,77.9 140.4,27.6" fill="#d8d5cf" stroke="#c9c5bd" stroke-width="1" stroke-linejoin="round"/>
<polygon points="137.8,26.1 140.4,27.6 53.3,77.9 50.7,76.4" fill="#efedea" stroke="#c9c5bd" stroke-width="1" stroke-linejoin="round"/>
<polygon points="139.6,37.6 226.7,87.9 226.7,77.9 139.6,27.6" fill="#e2dfd9" stroke="#c9c5bd" stroke-width="1" stroke-linejoin="round"/>
<polygon points="229.3,86.4 226.7,87.9 226.7,77.9 229.3,76.4" fill="#d8d5cf" stroke="#c9c5bd" stroke-width="1" stroke-linejoin="round"/>
<polygon points="142.2,26.1 229.3,76.4 226.7,77.9 139.6,27.6" fill="#efedea" stroke="#c9c5bd" stroke-width="1" stroke-linejoin="round"/>
<polygon points="131.1,47.5 140.0,52.7 140.0,42.4 131.1,37.3" fill="#e2dfd9" stroke="#c9c5bd" stroke-width="1" stroke-linejoin="round"/>
<polygon points="148.9,47.5 140.0,52.7 140.0,42.4 148.9,37.3" fill="#d8d5cf" stroke="#c9c5bd" stroke-width="1" stroke-linejoin="round"/>
<polygon points="140.0,32.1 148.9,37.3 140.0,42.4 131.1,37.3" fill="#efedea" stroke="#c9c5bd" stroke-width="1" stroke-linejoin="round"/>
<ellipse cx="135.3" cy="31.8" rx="5.4" ry="4.2" fill="#8db884" stroke="#c9c5bd" stroke-width="0.8"/>
<ellipse cx="140" cy="28.8" rx="7.8" ry="6.0" fill="#6f9d68" stroke="#c9c5bd" stroke-width="0.8"/>
<ellipse cx="145.2" cy="32.7" rx="4.8" ry="3.9" fill="#a3c79a" stroke="#c9c5bd" stroke-width="0.8"/>
<polygon points="198.3,86.7 205.3,90.8 205.3,82.6 198.3,78.6" fill="#e2dfd9" stroke="#c9c5bd" stroke-width="1" stroke-linejoin="round"/>
<polygon points="212.4,86.7 205.3,90.8 205.3,82.6 212.4,78.6" fill="#d8d5cf" stroke="#c9c5bd" stroke-width="1" stroke-linejoin="round"/>
<polygon points="205.3,74.5 212.4,78.6 205.3,82.6 198.3,78.6" fill="#efedea" stroke="#c9c5bd" stroke-width="1" stroke-linejoin="round"/>
<polygon points="121.5,93.3 140.0,104.0 140.0,93.3 121.5,82.6" fill="#d6c8b4" stroke="#c9c5bd" stroke-width="1" stroke-linejoin="round"/>
<polygon points="158.5,93.3 140.0,104.0 140.0,93.3 158.5,82.6" fill="#c9b9a2" stroke="#c9c5bd" stroke-width="1" stroke-linejoin="round"/>
<polygon points="140.0,72.0 158.5,82.6 140.0,93.3 121.5,82.6" fill="#e3d7c6" stroke="#c9c5bd" stroke-width="1" stroke-linejoin="round"/>
<ellipse cx="201.6" cy="74.3" rx="4.3" ry="3.3" fill="#8db884" stroke="#c9c5bd" stroke-width="0.8"/>
<ellipse cx="205.3" cy="71.9" rx="6.2" ry="4.8" fill="#6f9d68" stroke="#c9c5bd" stroke-width="0.8"/>
<ellipse cx="209.5" cy="75" rx="3.8" ry="3.1" fill="#a3c79a" stroke="#c9c5bd" stroke-width="0.8"/>
</svg>
