<svg xmlns="http://www.w3.org/2000/svg" viewBox="0 0 280 160">
<defs><filter id="blur" x="-20%" y="-20%" width="140%" height="140%"><feGaussianBlur stdDeviation="5"/></filter></defs>
<rect width="280" height="160" fill="#f7f6f3"/>
<polygon points="140.0,75.1 200.6,110.1 140.0,145.1 79.4,110.1" fill="#000" opacity="0.10" filter="url(#blur)"/>
<polygon points="82.0,107.5 140.0,141.0 140.0,138.8 82.0,105.3" fill="#eeebe6" stroke="#c9c5bd" stroke-width="1" stroke-linejoin="round"/>
<polygon points="198.0,107.5 140.0,141.0 140.0,138.8 198.0,105.3" fill="#e6e2dc" stroke="#c9c5bd" stroke-width="1" stroke-linejoin="round"/>
<polygon points="140.0,71.8 82.0,105.3 82.0,49.5 140.0,16.0" fill="#f1efeb" stroke="#c9c5bd" stroke-width="1" stroke-linejoin="round"/>
<polygon points="137.4,14.5 140.0,16.0 82.0,49.5 79.4,48.0" fill="#ffffff" stroke="#c9c5bd" stroke-width="1" stroke-linejoin="round"/>
<polygon points="79.4,106.0 82.0,107.5 82.0,49.5 79.4,48.0" fill="#dcd8d1" stroke="#c9c5bd" stroke-width="1" stroke-linejoin="round"/>
<polygon points="140.0,71.8 198.0,105.3 198.0,49.5 140.0,16.0" fill="#e7e4de" stroke="#c9c5bd" stroke-width="1" stroke-linejoin="round"/>
<polygon points="142.6,14.5 200.6,48.0 198.0,49.5 140.0,16.0" fill="#ffffff" stroke="#c9c5bd" stroke-width="1" stroke-linejoin="round"/>
<polygon points="200.6,106.0 198.0,107.5 198.0,49.5 200.6,48.0" fill="#dcd8d1" stroke="#c9c5bd" stroke-width="1" stroke-linejoin="round"/>
<polygon points="140.0,71.8 198.0,105.3 140.0,138.8 82.0,105.3" fill="#fbfaf8" stroke="#c9c5bd" stroke-width="1" stroke-linejoin="round"/>
<polygon points="154.2,82.6 179.3,97.1 179.3,82.6 154.2,68.1" fill="#d6c8b4" stroke="#c9c5bd" stroke-width="1" stroke-linejoin="round"/>
<polygon points="180.9,96.2 179.3,97.1 179.3,82.6 180.9,81.7" fill="#c9b9a2" stroke="#c9c5bd" stroke-width="1" stroke-linejoin="round"/>
<polygon points="155.8,67.1 180.9,81.7 179.3,82.6 154.2,68.1" fill="#e3d7c6" stroke="#c9c5bd" stroke-width="1" stroke-linejoin="round"/>
<polygon points="122.3,101.4 146.8,115.5 146.8,111.8 122.3,97.7" fill="#d6c8b4" stroke="#c9c5bd" stroke-width="1" stroke-linejoin="round"/>
<polygon points="179.0,96.9 146.8,115.5 146.8,111.8 179.0,93.2" fill="#c9b9a2" stroke="#c9c5bd" stroke-width="1" stroke-linejoin="round"/>
<polygon points="154.5,79.1 179.0,93.2 146.8,111.8 122.3,97.7" fill="#e3d7c6" stroke="#c9c5bd" stroke-width="1" stroke-linejoin="round"/>
<polygon points="124.2,97.7 146.8,110.7 146.8,106.6 124.2,93.6" fill="#f4f2ee" stroke="#c9c5bd" stroke-width="1" stroke-linejoin="round"/>
<polygon points="177.4,93.0 146.8,110.7 146.8,106.6 177.4,88.9" fill="#edebe7" stroke="#c9c5bd" stroke-width="1" stroke-linejoin="round"/>
<polygon points="154.8,75.9 177.4,88.9 146.8,106.6 124.2,93.6" fill="#ffffff" stroke="#c9c5bd" stroke-width="1" stroke-linejoin="round"/>
<polygon points="151.3,79.4 160.6,84.8 160.6,82.2 151.3,76.8" fill="#e2dfd9" stroke="#c9c5bd" stroke-width="1" stroke-linejoin="round"/>
<polygon points="164.8,82.4 160.6,84.8 160.6,82.2 164.8,79.8" fill="#d8d5cf" stroke="#c9c5bd" stroke-width="1" stroke-linejoin="round"/>
<polygon points="155.5,74.4 164.8,79.8 160.6,82.2 151.3,76.8" fill="#efedea" stroke="#c9c5bd" stroke-width="1" stroke-linejoin="round"/>
<polygon points="161.9,85.6 171.2,91.0 171.2,88.4 161.9,83.0" fill="#e2dfd9" stroke="#c9c5bd" stroke-width="1" stroke-linejoin="round"/>
<polygon points="175.4,88.5 171.2,91.0 171.2,88.4 175.4,85.9" fill="#d8d5cf" stroke="#c9c5bd" stroke-width="1" stroke-linejoin="round"/>
<polygon points="166.1,80.5 175.4,85.9 171.2,88.4 161.9,83.0" fill="#efedea" stroke="#c9c5bd" stroke-width="1" stroke-linejoin="round"/>
</svg>
